<?xml version="1.0" encoding="UTF-8"?>
<svg version="1.1" xmlns="http://www.w3.org/2000/svg" width="1353" height="755">
<path d="M0 0 C446.49 0 892.98 0 1353 0 C1353 249.15 1353 498.3 1353 755 C906.51 755 460.02 755 0 755 C0 505.85 0 256.7 0 0 Z " fill="#2A2C38" transform="translate(0,0)"/>
<path d="M0 0 C0 2.31 0 4.62 0 7 C0.99 7 1.98 7 3 7 C3.02570297 14.7514575 3.04301214 22.50290371 3.05493164 30.25439453 C3.0599094 32.8823284 3.06669401 35.51025957 3.07543945 38.13818359 C3.12509029 53.45984623 2.99476077 68.70737561 2 84 C-0.0249652 84.61830998 -2.04995284 85.23654665 -4.07510376 85.85424805 C-5.63077164 86.32981014 -7.18523525 86.80931607 -8.73901367 87.29101562 C-12.58779037 88.44386446 -15.93327782 89.32598975 -20 89 C-21.06680548 82.42136624 -21.38512676 75.90249396 -21.59448242 69.24584961 C-21.79642964 62.82920051 -22.08970869 56.44020294 -22.52261353 50.0352478 C-22.77114356 46.18169556 -22.9660194 42.32629869 -23.15380859 38.46936035 C-23.25906172 36.54136598 -23.38597113 34.61442438 -23.53515625 32.68933105 C-24.68430096 17.58917786 -24.68430096 17.58917786 -21.89334106 13.29879761 C-18.75936445 10.02030813 -15.00909666 8.01597466 -11 6 C-9.09660364 4.82466065 -7.19933615 3.63924441 -5.3125 2.4375 C-1.17073171 0 -1.17073171 0 0 0 Z " fill="#5C5B62" transform="translate(1107,184)"/>
<path d="M0 0 C1.09123901 3.27371704 1.19673577 5.83346451 1.29711914 9.28125 C1.3570681 11.2310376 1.3570681 11.2310376 1.41822815 13.22021484 C1.45737884 14.64680511 1.49635 16.07340032 1.53515625 17.5 C1.57824963 18.97478146 1.6216663 20.4495535 1.66539001 21.92431641 C1.7564236 25.02792061 1.84433994 28.13159261 1.92993164 31.23535156 C2.03818999 35.15653131 2.15277286 39.07749251 2.26949501 42.99842834 C2.73413516 58.66581587 3.17659253 74.32381576 3 90 C-11.56492411 96 -11.56492411 96 -18 96 C-18.33 90.06 -18.66 84.12 -19 78 C-19.33 78 -19.66 78 -20 78 C-22.34529761 65.16984247 -22.14476874 51.99701557 -22 39 C-21.67 39 -21.34 39 -21 39 C-20.67 43.62 -20.34 48.24 -20 53 C-19.97526645 47.51904631 -19.95712404 42.03812517 -19.94506836 36.55712891 C-19.94004208 34.69286534 -19.93322008 32.8286057 -19.92456055 30.96435547 C-19.91242037 28.28351876 -19.90675461 25.6027342 -19.90234375 22.921875 C-19.89718246 22.08944275 -19.89202118 21.2570105 -19.88670349 20.39935303 C-19.88659019 19.22859222 -19.88659019 19.22859222 -19.88647461 18.03417969 C-19.884254 17.35023132 -19.88203339 16.66628296 -19.87974548 15.96160889 C-19.93629917 13.95061982 -19.93629917 13.95061982 -20.57740784 11.88067627 C-21 10 -21 10 -19.875 7.875 C-17.71781735 5.71781735 -15.84615711 5.02169742 -13 4 C-12.34 3.34 -11.68 2.68 -11 2 C-8.90625 1.3671875 -8.90625 1.3671875 -6.5 0.875 C-5.7059375 0.70742187 -4.911875 0.53984375 -4.09375 0.3671875 C-2 0 -2 0 0 0 Z " fill="#595860" transform="translate(1156,162)"/>
<path d="M0 0 C0.33 0 0.66 0 1 0 C1 16.5 1 33 1 50 C0.67 50 0.34 50 0 50 C-1.08806442 42.12652596 -1.11529603 34.37720997 -1.0625 26.4375 C-1.05798828 25.14263672 -1.05347656 23.84777344 -1.04882812 22.51367188 C-1.03712601 19.342399 -1.02073113 16.17122454 -1 13 C-1.66 13 -2.32 13 -3 13 C-2.01 8.71 -1.02 4.42 0 0 Z " fill="#4E4F59" transform="translate(1109,198)"/>
<path d="M0 0 C0.66 0.33 1.32 0.66 2 1 C2.4140625 3.72265625 2.4140625 3.72265625 2.625 7.0625 C2.69976562 8.16722656 2.77453125 9.27195312 2.8515625 10.41015625 C2.90054687 11.26480469 2.94953125 12.11945312 3 13 C5.97 13.495 5.97 13.495 9 14 C9 14.66 9 15.32 9 16 C6.36 16 3.72 16 1 16 C0.67 14.35 0.34 12.7 0 11 C-0.99 11.33 -1.98 11.66 -3 12 C-3 8.37 -3 4.74 -3 1 C-2.01 0.67 -1.02 0.34 0 0 Z " fill="#2B272F" transform="translate(288,571)"/>
<path d="M0 0 C0.33 0 0.66 0 1 0 C1.04898437 0.98742187 1.09796875 1.97484375 1.1484375 2.9921875 C1.22320313 4.27351562 1.29796875 5.55484375 1.375 6.875 C1.44460938 8.15117187 1.51421875 9.42734375 1.5859375 10.7421875 C1.67241106 14.08061699 1.67241106 14.08061699 4 16 C4.25878906 18.12304688 4.25878906 18.12304688 4.265625 20.71875 C4.26820312 21.65074219 4.27078125 22.58273438 4.2734375 23.54296875 C4.26570313 24.51878906 4.25796875 25.49460938 4.25 26.5 C4.25773437 27.47582031 4.26546875 28.45164063 4.2734375 29.45703125 C4.27085938 30.38902344 4.26828125 31.32101563 4.265625 32.28125 C4.26336914 33.13783203 4.26111328 33.99441406 4.25878906 34.87695312 C4 37 4 37 2 39 C-0.34529761 26.16984247 -0.14476874 12.99701557 0 0 Z " fill="#4F505A" transform="translate(1134,201)"/>
<path d="M0 0 C4.67692308 1.47692308 4.67692308 1.47692308 6.3125 4.125 C6.539375 4.74375 6.76625 5.3625 7 6 C6.01 7.32 5.02 8.64 4 10 C2.35 9.67 0.7 9.34 -1 9 C-0.67 6.03 -0.34 3.06 0 0 Z " fill="#28262A" transform="translate(170,303)"/>
<path d="M0 0 C0.66 0.33 1.32 0.66 2 1 C2 6.61 2 12.22 2 18 C0 17 0 17 -0.6171875 15.32421875 C-1.08909837 12.45904562 -1.13207283 9.71589739 -1.125 6.8125 C-1.12757813 5.74644531 -1.13015625 4.68039062 -1.1328125 3.58203125 C-1 1 -1 1 0 0 Z " fill="#22212B" transform="translate(179,267)"/>
<path d="M0 0 C0.33 0.99 0.66 1.98 1 3 C-2.82180842 7.4008703 -5.47371099 8.80805531 -11 10 C-11 9.01 -11 8.02 -11 7 C-6.77777778 4 -6.77777778 4 -4 4 C-4 3.34 -4 2.68 -4 2 C-2.68 1.34 -1.36 0.68 0 0 Z " fill="#1E1C22" transform="translate(134,674)"/>
<path d="M0 0 C0.99 0.33 1.98 0.66 3 1 C2.34 1 1.68 1 1 1 C1 5.95 1 10.9 1 16 C0.34 16.33 -0.32 16.66 -1 17 C-1.06058594 16.39671875 -1.12117188 15.7934375 -1.18359375 15.171875 C-1.30927734 13.97304687 -1.30927734 13.97304687 -1.4375 12.75 C-1.51871094 11.96109375 -1.59992188 11.1721875 -1.68359375 10.359375 C-1.93927937 8.01021715 -1.93927937 8.01021715 -2.625 5.84375 C-3 4 -3 4 -1.5625 1.75 C-1.046875 1.1725 -0.53125 0.595 0 0 Z " fill="#4D4E59" transform="translate(1138,168)"/>
<path d="M0 0 C0.33 0 0.66 0 1 0 C0.93039063 1.21236328 0.93039063 1.21236328 0.859375 2.44921875 C0.50107099 9.1790183 0.50107099 9.1790183 3 15.25 C3.99 16.11625 3.99 16.11625 5 17 C2.04196519 15.6512925 -0.20796367 14.10431451 -2.625 11.9375 C-4.4181258 10.33621517 -5.84656316 9.07671842 -8 8 C-8 7.34 -8 6.68 -8 6 C-2.25 7.875 -2.25 7.875 0 9 C0 6.03 0 3.06 0 0 Z " fill="#272429" transform="translate(167,281)"/>
<path d="M0 0 C0 0.99 0 1.98 0 3 C-4.17737474 4.59138085 -7.53160785 5.21278058 -12 5 C-9.07448433 0.61172649 -5.14766269 0 0 0 Z " fill="#292527" transform="translate(189,156)"/>
<path d="M0 0 C0.99 0 1.98 0 3 0 C3 3.3 3 6.6 3 10 C2.01 10.33 1.02 10.66 0 11 C0 7.37 0 3.74 0 0 Z " fill="#22212B" transform="translate(285,572)"/>
<path d="M0 0 C4.19360449 0.67097672 7.40334352 2.8558394 11 5 C10.01 5.66 9.02 6.32 8 7 C6.66144944 6.21718695 5.32926356 5.42348123 4 4.625 C3.2575 4.18414062 2.515 3.74328125 1.75 3.2890625 C1.1725 2.86367188 0.595 2.43828125 0 2 C0 1.34 0 0.68 0 0 Z " fill="#292427" transform="translate(167,337)"/>
<path d="M0 0 C0.8971875 0.5259375 0.8971875 0.5259375 1.8125 1.0625 C0.23335985 1.59591184 -1.35104387 2.11375763 -2.9375 2.625 C-3.81921875 2.91503906 -4.7009375 3.20507812 -5.609375 3.50390625 C-8.26584316 4.07947435 -9.65781106 3.95498371 -12.1875 3.0625 C-2.58125 -1.10625 -2.58125 -1.10625 0 0 Z " fill="#53525B" transform="translate(1154.1875,262.9375)"/>
<path d="M0 0 C0.66 0.66 1.32 1.32 2 2 C0.02 3.32 -1.96 4.64 -4 6 C-4.66 5.67 -5.32 5.34 -6 5 C-2.25 1.125 -2.25 1.125 0 0 Z " fill="#242026" transform="translate(173,647)"/>
<path d="M0 0 C0.99 0 1.98 0 3 0 C3 1.98 3 3.96 3 6 C2.01 6.33 1.02 6.66 0 7 C0 4.69 0 2.38 0 0 Z " fill="#4D4F59" transform="translate(1107,191)"/>
<path d="M0 0 C0.33 0.99 0.66 1.98 1 3 C-1.475 4.485 -1.475 4.485 -4 6 C-4.33 5.01 -4.66 4.02 -5 3 C-3.35 2.01 -1.7 1.02 0 0 Z " fill="#2A2628" transform="translate(188,217)"/>
</svg>
