<?xml version="1.0" encoding="UTF-8"?>
<svg version="1.1" xmlns="http://www.w3.org/2000/svg" width="32" height="32">
<path d="M0 0 C3.7705134 0.47333121 4.99461765 2.09682792 7.55078125 4.84375 C8.34097656 5.6790625 9.13117187 6.514375 9.9453125 7.375 C10.53699219 8.0246875 11.12867188 8.674375 11.73828125 9.34375 C14.95570821 7.94976633 16.85439651 6.32427653 19.17578125 3.71875 C22.36994719 0.4078081 22.36994719 0.4078081 25.61328125 -0.15625 C27.73828125 0.34375 27.73828125 0.34375 28.73828125 1.34375 C29.08203125 3.60546875 29.08203125 3.60546875 28.73828125 6.34375 C26.76953125 8.80078125 26.76953125 8.80078125 24.23828125 11.15625 C22.9853125 12.34154297 22.9853125 12.34154297 21.70703125 13.55078125 C21.05734375 14.14246094 20.40765625 14.73414063 19.73828125 15.34375 C21.12998666 18.56294737 22.73985055 20.41919963 25.36328125 22.71875 C28.68178365 25.89984029 28.68178365 25.89984029 29.17578125 29.78125 C29.03140625 30.626875 28.88703125 31.4725 28.73828125 32.34375 C24.92365485 32.74179797 23.27878101 32.76028192 20.18359375 30.375 C19.41789062 29.5396875 18.6521875 28.704375 17.86328125 27.84375 C17.08210938 27.0084375 16.3009375 26.173125 15.49609375 25.3125 C14.91601562 24.6628125 14.3359375 24.013125 13.73828125 23.34375 C10.51908388 24.73545541 8.66283162 26.3453193 6.36328125 28.96875 C3.18219096 32.2872524 3.18219096 32.2872524 -0.69921875 32.78125 C-1.54484375 32.636875 -2.39046875 32.4925 -3.26171875 32.34375 C-3.65976672 28.5291236 -3.67825067 26.88424976 -1.29296875 23.7890625 C-0.45765625 23.02335937 0.37765625 22.25765625 1.23828125 21.46875 C2.07359375 20.68757813 2.90890625 19.90640625 3.76953125 19.1015625 C4.41921875 18.52148438 5.06890625 17.94140625 5.73828125 17.34375 C4.34429758 14.12632304 2.71880778 12.22763474 0.11328125 9.90625 C-3.19766065 6.71208406 -3.19766065 6.71208406 -3.76171875 3.46875 C-3.08440963 0.59018624 -2.94423615 0.44748321 0 0 Z " fill="#000000" transform="translate(3.26171875,-0.34375)"/>
</svg>
