<svg xmlns="http://www.w3.org/2000/svg" xmlns:xlink="http://www.w3.org/1999/xlink" width="500" zoomAndPan="magnify" viewBox="0 0 375 374.999991" height="500" preserveAspectRatio="xMidYMid meet" version="1.0"><defs><clipPath id="52da49e70d"><path d="M 187.5 0 C 83.945312 0 0 83.945312 0 187.5 C 0 291.054688 83.945312 375 187.5 375 C 291.054688 375 375 291.054688 375 187.5 C 375 83.945312 291.054688 0 187.5 0 Z M 187.5 0 " clip-rule="nonzero"/></clipPath><clipPath id="3698f8f5fb"><path d="M 134.039062 109.597656 L 239.703125 109.597656 L 239.703125 263 L 134.039062 263 Z M 134.039062 109.597656 " clip-rule="nonzero"/></clipPath></defs><g clip-path="url(#52da49e70d)"><rect x="-37.5" width="450" fill="#000000" y="-37.499999" height="449.999989" fill-opacity="1"/></g><g clip-path="url(#3698f8f5fb)"><path fill="#ed563b" d="M 187.492188 109.628906 C 217.011719 109.628906 240.945312 133.5625 240.945312 163.085938 C 240.945312 173.355469 238.046875 182.949219 233.023438 191.09375 C 227 201.074219 220.976562 211.050781 214.953125 221.03125 C 207.613281 232.957031 201.679688 242.609375 194.34375 254.535156 C 187.875 265.050781 187.4375 265.308594 180.933594 254.738281 C 173.636719 242.875 167.5 232.898438 160.199219 221.03125 C 154.1875 211.164062 148.179688 201.296875 142.167969 191.429688 C 137.019531 183.214844 134.039062 173.496094 134.039062 163.085938 C 134.039062 133.5625 157.96875 109.628906 187.492188 109.628906 Z M 187.492188 136.429688 C 200.726562 136.429688 211.457031 147.160156 211.457031 160.394531 C 211.457031 173.628906 200.726562 184.355469 187.492188 184.355469 C 174.257812 184.355469 163.527344 173.628906 163.527344 160.394531 C 163.527344 147.160156 174.257812 136.429688 187.492188 136.429688 Z M 187.492188 136.429688 " fill-opacity="1" fill-rule="evenodd"/></g></svg>