<?xml version="1.0" encoding="UTF-8"?>
<svg version="1.1" xmlns="http://www.w3.org/2000/svg" width="500" height="500">
<path d="M0 0 C0.86625 0.556875 1.7325 1.11375 2.625 1.6875 C11.38478566 10.21676499 17.02456161 21.67738652 17.3125 33.9375 C17.2074985 45.61891654 13.3802437 55.89269634 5.6875 64.625 C-4.92094005 73.99990051 -15.02198164 78.41042541 -29.26171875 78.27734375 C-42.39987243 77.30262179 -52.5472257 70.46422106 -60.96875 60.72265625 C-63.08146805 57.89080148 -64.36576675 55.26889232 -65.6875 52 C-66.10386719 50.989375 -66.52023438 49.97875 -66.94921875 48.9375 C-70.50791226 38.98903338 -70.20367709 27.69355388 -66 18 C-63.06506859 12.24820913 -59.89486608 7.28300782 -55 3 C-53.7315625 1.7625 -53.7315625 1.7625 -52.4375 0.5 C-37.37053597 -11.866651 -15.52102011 -10.15453903 0 0 Z " fill="#000000" transform="translate(276,215)"/>
<path d="M0 0 C3.68862029 2.10778302 5.40251955 4.12549722 7 8 C7.52128199 14.9430149 4.73040034 19.99575355 0.9375 25.5625 C0.46505859 26.28501953 -0.00738281 27.00753906 -0.49414062 27.75195312 C-1.64762994 29.51131562 -2.82170656 31.25715217 -4 33 C-8.30660127 31.56446624 -9.47761142 28.31350296 -11.625 24.5625 C-12.03234375 23.86833984 -12.4396875 23.17417969 -12.859375 22.45898438 C-15.97823749 17.12490332 -18.13193287 13.30486607 -17 7 C-13.54344825 -0.55058231 -7.6950747 -1.48974769 0 0 Z " fill="#E55339" transform="translate(255,233)"/>
<path d="M0 0 C2.4375 0.75 2.4375 0.75 4.4375 2.75 C4.0625 6.375 4.0625 6.375 3.4375 9.75 C0.0625 10.375 0.0625 10.375 -3.5625 10.75 C-5.5625 8.75 -5.5625 8.75 -5.875 5.25 C-5.771875 4.095 -5.66875 2.94 -5.5625 1.75 C-2.5625 -0.25 -2.5625 -0.25 0 0 Z " fill="#0A0302" transform="translate(250.5625,238.25)"/>
</svg>
