<?xml version="1.0" encoding="UTF-8"?>
<svg version="1.1" xmlns="http://www.w3.org/2000/svg" width="346" height="36">
<path d="M0 0 C7 0 7 0 8.80444336 1.19335938 C9.22862549 1.73798828 9.65280762 2.28261719 10.08984375 2.84375 C10.56357422 3.43027344 11.03730469 4.01679688 11.52539062 4.62109375 C11.99138672 5.24113281 12.45738281 5.86117188 12.9375 6.5 C13.67709961 7.43005859 13.67709961 7.43005859 14.43164062 8.37890625 C15.64022616 9.90430547 16.82279164 11.45025735 18 13 C18.33 8.71 18.66 4.42 19 0 C21.64 0 24.28 0 27 0 C27 9.24 27 18.48 27 28 C20 28 20 28 17.453125 25.953125 C16.72609375 25.06109375 15.9990625 24.1690625 15.25 23.25 C14.14398438 21.92742188 14.14398438 21.92742188 13.015625 20.578125 C11.31729505 18.40584251 9.65442706 16.20590275 8 14 C7.67 18.62 7.34 23.24 7 28 C4.69 28 2.38 28 0 28 C0 18.76 0 9.52 0 0 Z " fill="#232323" transform="translate(206,4)"/>
<path d="M0 0 C3.17625 -0.0825 6.3525 -0.165 9.625 -0.25 C10.6145166 -0.28641602 11.6040332 -0.32283203 12.62353516 -0.36035156 C18.43813249 -0.43322503 21.55344455 0.18665656 26 4 C29.38570467 7.83713196 29.51291172 11.63401462 29.3515625 16.5625 C28.69477921 21.1161975 26.46388317 23.79344004 23 26.6484375 C18.57765668 28.6407953 14.47102409 28.31832813 9.6875 28.1875 C4.8921875 28.0946875 4.8921875 28.0946875 0 28 C0 18.76 0 9.52 0 0 Z M8 6 C8 11.28 8 16.56 8 22 C14.09022546 22.56555113 14.09022546 22.56555113 19.5 20.375 C21.33258527 17.47340665 21.8572612 15.42573131 22 12 C20.87981101 8.63943304 20.05465901 8.03643934 17 6 C13.97670744 5.7389212 11.04123758 5.91184819 8 6 Z " fill="#FEFEFE" transform="translate(131,4)"/>
<path d="M0 0 C4.516875 -0.1546875 4.516875 -0.1546875 9.125 -0.3125 C10.06230957 -0.35802002 10.99961914 -0.40354004 11.96533203 -0.45043945 C16.20794599 -0.52047195 19.14524724 -0.38764567 22.55078125 2.3046875 C25.60708243 5.66808114 26.07929282 7.48030939 26 12 C24.68446467 15.3201606 23.5194066 17.4805934 21 20 C21.3609375 20.49371094 21.721875 20.98742187 22.09375 21.49609375 C22.78984375 22.45708984 22.78984375 22.45708984 23.5 23.4375 C23.9640625 24.07558594 24.428125 24.71367187 24.90625 25.37109375 C26 27 26 27 26 28 C20.80414169 28.52839237 20.80414169 28.52839237 18 28 C15.3125 25.0625 15.3125 25.0625 13 22 C10.32891902 21.04452419 10.32891902 21.04452419 8 21 C8 23.31 8 25.62 8 28 C5.36 28 2.72 28 0 28 C0 18.76 0 9.52 0 0 Z M8 6 C8 8.97 8 11.94 8 15 C13.58500567 14.80101292 13.58500567 14.80101292 18 12 C17.71016731 8.69316534 17.71016731 8.69316534 16 6 C13.32941149 5.85884839 10.67567762 5.95752893 8 6 Z " fill="#FEFEFE" transform="translate(3,4)"/>
<path d="M0 0 C3.01125 -0.061875 6.0225 -0.12375 9.125 -0.1875 C10.06230957 -0.21481201 10.99961914 -0.24212402 11.96533203 -0.27026367 C17.05272783 -0.32065002 20.65056141 0.05792983 25 3 C27.60881545 6.01069564 28.91334364 9.37248518 29.125 13.34765625 C28.76657858 17.82045694 27.97276145 21.51469348 25 25 C19.71309884 28.43358995 15.19208051 28.36428703 9.125 28.1875 C6.11375 28.125625 3.1025 28.06375 0 28 C0 18.76 0 9.52 0 0 Z M7 6 C7 11.28 7 16.56 7 22 C13.45710347 22.61526212 13.45710347 22.61526212 19.0625 19.875 C21.16757744 17.14213864 21.16757744 17.14213864 21.625 14 C20.75445216 9.82137038 19.50368509 8.43112843 16 6 C12.87327402 5.58693754 10.17628148 5.76296407 7 6 Z " fill="#1B1B1B" transform="translate(239,4)"/>
<path d="M0 0 C7.26 0 14.52 0 22 0 C22 1.98 22 3.96 22 6 C17.38 6 12.76 6 8 6 C8 7.65 8 9.3 8 11 C12.29 11 16.58 11 21 11 C21 12.98 21 14.96 21 17 C16.71 17 12.42 17 8 17 C8 18.65 8 20.3 8 22 C12.95 22 17.9 22 23 22 C23 23.98 23 25.96 23 28 C15.41 28 7.82 28 0 28 C0 18.76 0 9.52 0 0 Z " fill="#FEFEFE" transform="translate(104,4)"/>
<path d="M0 0 C4.5478125 -0.12375 4.5478125 -0.12375 9.1875 -0.25 C10.60712036 -0.30462402 10.60712036 -0.30462402 12.05541992 -0.36035156 C16.21574001 -0.41511005 18.4337676 -0.35090458 22.05078125 1.890625 C25.29758257 5.40419757 25.39643081 8.094411 25.3515625 12.73828125 C25 15 25 15 22.75 18 C17.8781254 21.54318153 13.87001164 21.09783353 8 21 C8 23.31 8 25.62 8 28 C5.36 28 2.72 28 0 28 C0 18.76 0 9.52 0 0 Z M8 6 C8 8.97 8 11.94 8 15 C13.58500567 14.80101292 13.58500567 14.80101292 18 12 C17.71016731 8.69316534 17.71016731 8.69316534 16 6 C13.32941149 5.85884839 10.67567762 5.95752893 8 6 Z " fill="#FEFEFE" transform="translate(75,4)"/>
<path d="M0 0 C4.5478125 -0.12375 4.5478125 -0.12375 9.1875 -0.25 C10.60712036 -0.30462402 10.60712036 -0.30462402 12.05541992 -0.36035156 C16.21574001 -0.41511005 18.4337676 -0.35090458 22.05078125 1.890625 C25.07512041 5.16345695 25.34607952 7.49971071 25.28125 11.96484375 C24.83009301 15.22946589 23.38122136 16.81185064 21 19 C16.60766715 21.63539971 11.95972067 21.19449885 7 21 C7 23.31 7 25.62 7 28 C4.69 28 2.38 28 0 28 C0 18.76 0 9.52 0 0 Z M7 6 C7 8.97 7 11.94 7 15 C12.31925322 14.94245508 12.31925322 14.94245508 17 13 C17.04080783 11.00041636 17.04254356 8.99954746 17 7 C14.71294169 5.85647084 13.40735238 5.89665561 10.875 5.9375 C8.956875 5.9684375 8.956875 5.9684375 7 6 Z " fill="#FEFEFE" transform="translate(46,4)"/>
<path d="M0 0 C2.64 0 5.28 0 8 0 C10.0305578 4.33614793 12.05651719 8.67438745 14.07617188 13.015625 C14.90826922 14.80296306 15.74303242 16.58905944 16.578125 18.375 C17.02671875 19.344375 17.4753125 20.31375 17.9375 21.3125 C18.33839844 22.17488281 18.73929688 23.03726562 19.15234375 23.92578125 C20 26 20 26 20 28 C17.36 28 14.72 28 12 28 C11.34 26.02 10.68 24.04 10 22 C6.04 22 2.08 22 -2 22 C-2.66 23.98 -3.32 25.96 -4 28 C-6.64 28 -9.28 28 -12 28 C-10.20513796 21.95523473 -7.50677707 16.33824153 -4.875 10.625 C-4.40707031 9.60277344 -3.93914062 8.58054687 -3.45703125 7.52734375 C-2.30741708 5.01696179 -1.15499936 2.50790769 0 0 Z M3 9 C1.515 12.96 1.515 12.96 0 17 C2.64 17 5.28 17 8 17 C7.01 14.36 6.02 11.72 5 9 C4.34 9 3.68 9 3 9 Z " fill="#202020" transform="translate(184,4)"/>
<path d="M0 0 C7.26 0 14.52 0 22 0 C22 1.98 22 3.96 22 6 C17.05 6 12.1 6 7 6 C7 7.98 7 9.96 7 12 C11.29 12 15.58 12 20 12 C20 13.98 20 15.96 20 18 C15.71 18 11.42 18 7 18 C7 21.3 7 24.6 7 28 C4.69 28 2.38 28 0 28 C0 18.76 0 9.52 0 0 Z " fill="#EE674F" transform="translate(283,4)"/>
<path d="M0 0 C8.58 0 17.16 0 26 0 C26 1.98 26 3.96 26 6 C23.03 6 20.06 6 17 6 C17 13.26 17 20.52 17 28 C14.36 28 11.72 28 9 28 C9 20.74 9 13.48 9 6 C6.03 6 3.06 6 0 6 C0 4.02 0 2.04 0 0 Z " fill="#F0725C" transform="translate(318,4)"/>
<path d="M0 0 C2.64 0 5.28 0 8 0 C8 9.24 8 18.48 8 28 C5.36 28 2.72 28 0 28 C0 18.76 0 9.52 0 0 Z " fill="#F07560" transform="translate(308,4)"/>
<path d="M0 0 C2.31 0 4.62 0 7 0 C7 9.24 7 18.48 7 28 C4.69 28 2.38 28 0 28 C0 18.76 0 9.52 0 0 Z " fill="#FEFEFE" transform="translate(33,4)"/>
</svg>
