<?xml version="1.0" encoding="UTF-8"?>
<svg version="1.1" xmlns="http://www.w3.org/2000/svg" width="738" height="75">
<path d="M0 0 C12 0 12 0 15.515625 2.7109375 C16.46450508 3.90345119 17.37553884 5.12688944 18.25 6.375 C18.74395264 7.01332764 19.23790527 7.65165527 19.74682617 8.30932617 C20.73566651 9.59187189 21.70969084 10.88599723 22.66748047 12.19189453 C24.46693426 14.63358651 26.38969308 16.96734243 28.3125 19.3125 C31.90929034 23.84831252 35.44589966 28.43044243 39 33 C39.33 22.11 39.66 11.22 40 0 C44.95 0 49.9 0 55 0 C55 19.8 55 39.6 55 60 C42 60 42 60 38.38671875 57.2890625 C37.44623622 56.09879785 36.54674457 54.87517442 35.6875 53.625 C35.19805908 52.98667236 34.70861816 52.34834473 34.2043457 51.69067383 C33.22515516 50.40895605 32.26196415 49.11483224 31.31640625 47.80810547 C29.53243265 45.35778862 27.61104633 43.02904774 25.6875 40.6875 C22.09070966 36.15168748 18.55410034 31.56955757 15 27 C14.67 37.89 14.34 48.78 14 60 C9.38 60 4.76 60 0 60 C0 40.2 0 20.4 0 0 Z " fill="#111111" transform="translate(438,6)"/>
<path d="M0 0 C5.218125 -0.061875 10.43625 -0.12375 15.8125 -0.1875 C18.24653198 -0.22846802 18.24653198 -0.22846802 20.72973633 -0.27026367 C32.70705602 -0.33863828 43.71176824 0.68757469 53 9 C58.86185191 15.79270393 61.49881201 22.87400346 61.1796875 31.93359375 C60.34927438 41.48334461 56.98191884 47.01808116 50.25 53.75 C39.88643545 60.92477546 30.01436234 60.49017297 17.875 60.25 C11.97625 60.1675 6.0775 60.085 0 60 C0 40.2 0 20.4 0 0 Z M15 12 C15 23.88 15 35.76 15 48 C29.71212357 49.30362701 29.71212357 49.30362701 40.86328125 43.31640625 C41.34152344 42.73761719 41.81976562 42.15882812 42.3125 41.5625 C42.80363281 40.98628906 43.29476562 40.41007812 43.80078125 39.81640625 C46.41714497 35.85351006 46.3143394 31.63650619 46 27 C44.10869677 21.22654804 41.66744476 16.9471082 36.16796875 14.02734375 C28.81519592 11.09441952 23.52156139 12 15 12 Z " fill="#131313" transform="translate(506,6)"/>
<path d="M0 0 C5.176875 -0.0825 10.35375 -0.165 15.6875 -0.25 C18.09421997 -0.30462402 18.09421997 -0.30462402 20.54956055 -0.36035156 C31.71102285 -0.44563231 42.10149254 0.43496755 51.0625 7.8125 C57.8583948 14.50863855 60.12942627 20.7351141 60.3125 30.1875 C60.33200638 39.17777506 57.90841592 45.76440193 51.84765625 52.4296875 C45.00637937 58.24404967 37.35382014 60.15472522 28.61328125 60.09765625 C27.88894897 60.09664917 27.1646167 60.09564209 26.41833496 60.09460449 C23.71637384 60.08937826 21.0144353 60.07541698 18.3125 60.0625 C12.269375 60.041875 6.22625 60.02125 0 60 C0 40.2 0 20.4 0 0 Z M14 12 C14 23.88 14 35.76 14 48 C30.80743041 49.34164079 30.80743041 49.34164079 40 44 C44.89540896 38.85354443 45.30123344 34.57611773 45.2109375 27.72265625 C44.80986682 22.5458736 42.86926022 19.88947558 39.3125 16.25 C31.7726763 10.54468328 23.20353008 12 14 12 Z " fill="#FEFEFE" transform="translate(279,6)"/>
<path d="M0 0 C5.07375 -0.061875 10.1475 -0.12375 15.375 -0.1875 C16.95458496 -0.21481201 18.53416992 -0.24212402 20.16162109 -0.27026367 C30.92652502 -0.33355461 40.26792639 0.21716588 48.37109375 7.9765625 C51.90658004 12.36836561 52.79651966 17.06693676 53.375 22.5625 C52.59808627 29.68420916 50.46102327 34.22160464 45 39 C43.9940865 39.99405132 42.99275915 40.99281121 42 42 C42.36351562 42.50974365 42.72703125 43.0194873 43.1015625 43.54467773 C44.73680361 45.84056674 46.36844427 48.13899074 48 50.4375 C48.57234375 51.23994141 49.1446875 52.04238281 49.734375 52.86914062 C50.27578125 53.63291016 50.8171875 54.39667969 51.375 55.18359375 C51.87773438 55.89056396 52.38046875 56.59753418 52.8984375 57.32592773 C54 59 54 59 54 60 C42.28109628 61.43822909 42.28109628 61.43822909 37 60 C33.15623252 56.52633393 31.15315664 52.66205221 29 48 C28.34 47.01 27.68 46.02 27 45 C24.11404054 44.41518879 24.11404054 44.41518879 20.875 44.3125 C18.93625 44.209375 16.9975 44.10625 15 44 C15 49.28 15 54.56 15 60 C10.05 60 5.1 60 0 60 C0 40.2 0 20.4 0 0 Z M15 12 C15 18.6 15 25.2 15 32 C17.371875 32.061875 19.74375 32.12375 22.1875 32.1875 C22.92508545 32.21481201 23.6626709 32.24212402 24.42260742 32.27026367 C29.90832179 32.33915921 32.88131995 30.90681204 36.875 27.3125 C38.58270745 23.80221246 38.21909624 20.59818103 37 17 C33.22130068 13.01704666 30.12461992 12.06414915 24.765625 11.90234375 C23.02539062 11.91974609 23.02539062 11.91974609 21.25 11.9375 C18.15625 11.9684375 18.15625 11.9684375 15 12 Z " fill="#FEFEFE" transform="translate(7,6)"/>
<path d="M0 0 C14.85 0 29.7 0 45 0 C45 3.96 45 7.92 45 12 C34.77 12 24.54 12 14 12 C14 15.96 14 19.92 14 24 C23.24 24 32.48 24 42 24 C42 27.96 42 31.92 42 36 C32.76 36 23.52 36 14 36 C14 39.96 14 43.92 14 48 C24.56 48 35.12 48 46 48 C46 51.96 46 55.92 46 60 C30.82 60 15.64 60 0 60 C0 40.2 0 20.4 0 0 Z " fill="#FEFEFE" transform="translate(222,6)"/>
<path d="M0 0 C4.95 0 9.9 0 15 0 C17.57905241 5.6878728 20.15670178 11.37637874 22.7331543 17.06542969 C23.60648394 18.99333093 24.48017084 20.92107038 25.35424805 22.84863281 C29.64065266 32.30183955 33.92242683 41.7574211 38.12109375 51.25 C38.41669693 51.91161133 38.71230011 52.57322266 39.01686096 53.25488281 C41 57.76748622 41 57.76748622 41 60 C36.05 60 31.1 60 26 60 C21 50.25 21 50.25 21 48 C7.635 48.495 7.635 48.495 -6 49 C-7.65 52.63 -9.3 56.26 -11 60 C-15.95 60 -20.9 60 -26 60 C-23.9528674 53.52844573 -21.5222554 47.41476259 -18.69140625 41.25 C-18.07941628 39.90276855 -18.07941628 39.90276855 -17.45506287 38.52832031 C-16.1617565 35.68360558 -14.86230981 32.84174816 -13.5625 30 C-12.69423891 28.09394243 -11.82639676 26.18769395 -10.95898438 24.28125 C-9.73187253 21.58426097 -8.50423149 18.88753333 -7.27308655 16.19238281 C-4.81499804 10.80952285 -2.39550347 5.41101959 0 0 Z M7 16 C5.66379191 19.14462004 4.33151712 22.29089113 3 25.4375 C2.42765625 26.78424805 2.42765625 26.78424805 1.84375 28.15820312 C1.4828125 29.01220703 1.121875 29.86621094 0.75 30.74609375 C0.24726563 31.93223267 0.24726563 31.93223267 -0.265625 33.14233398 C-1.06127279 34.82206892 -1.06127279 34.82206892 -1 36 C4.61 36 10.22 36 16 36 C13.36 29.4 10.72 22.8 8 16 C7.67 16 7.34 16 7 16 Z " fill="#161616" transform="translate(391,6)"/>
<path d="M0 0 C7.363125 -0.0928125 7.363125 -0.0928125 14.875 -0.1875 C16.40237793 -0.21481201 17.92975586 -0.24212402 19.50341797 -0.27026367 C29.2962053 -0.32973404 39.38031089 0.08911918 47 7 C51.37899085 13.33037139 53.18423203 19.35398013 52 27 C50.56135555 32.28188035 47.85803409 37.24982242 43.10546875 40.16015625 C38.20197592 42.69832786 34.01564117 44.13524082 28.453125 44.09765625 C27.60878906 44.09443359 26.76445312 44.09121094 25.89453125 44.08789062 C24.58548828 44.07532227 24.58548828 44.07532227 23.25 44.0625 C22.36183594 44.05798828 21.47367188 44.05347656 20.55859375 44.04882812 C18.37236684 44.03707422 16.18617472 44.01913966 14 44 C14 49.28 14 54.56 14 60 C9.38 60 4.76 60 0 60 C0 40.2 0 20.4 0 0 Z M14 12 C14 18.6 14 25.2 14 32 C16.35125 32.061875 18.7025 32.12375 21.125 32.1875 C21.85348145 32.21481201 22.58196289 32.24212402 23.33251953 32.27026367 C27.99283734 32.32903904 31.05259765 31.43740205 35 29 C37.38699285 25.85350943 37.47251366 22.85886154 37 19 C34.34755108 14.51124028 31.9416917 13.30601852 27 12 C23.56932474 11.76035114 23.56932474 11.76035114 20.125 11.875 C18.10375 11.91625 16.0825 11.9575 14 12 Z " fill="#FEFEFE" transform="translate(160,6)"/>
<path d="M0 0 C7.363125 -0.0928125 7.363125 -0.0928125 14.875 -0.1875 C16.40237793 -0.21481201 17.92975586 -0.24212402 19.50341797 -0.27026367 C29.2962053 -0.32973404 39.38031089 0.08911918 47 7 C51.37899085 13.33037139 53.18423203 19.35398013 52 27 C50.56135555 32.28188035 47.85803409 37.24982242 43.10546875 40.16015625 C38.20197592 42.69832786 34.01564117 44.13524082 28.453125 44.09765625 C27.60878906 44.09443359 26.76445313 44.09121094 25.89453125 44.08789062 C24.58548828 44.07532227 24.58548828 44.07532227 23.25 44.0625 C22.36183594 44.05798828 21.47367188 44.05347656 20.55859375 44.04882812 C18.37236684 44.03707422 16.18617472 44.01913966 14 44 C14 49.28 14 54.56 14 60 C9.38 60 4.76 60 0 60 C0 40.2 0 20.4 0 0 Z M14 12 C14 18.6 14 25.2 14 32 C16.35125 32.061875 18.7025 32.12375 21.125 32.1875 C21.85348145 32.21481201 22.58196289 32.24212402 23.33251953 32.27026367 C27.99283734 32.32903904 31.05259765 31.43740205 35 29 C37.38699285 25.85350943 37.47251366 22.85886154 37 19 C34.34755108 14.51124028 31.9416917 13.30601852 27 12 C23.56932474 11.76035114 23.56932474 11.76035114 20.125 11.875 C18.10375 11.91625 16.0825 11.9575 14 12 Z " fill="#FEFEFE" transform="translate(98,6)"/>
<path d="M0 0 C15.18 0 30.36 0 46 0 C46 3.96 46 7.92 46 12 C35.77 12 25.54 12 15 12 C15 16.95 15 21.9 15 27 C23.91 27 32.82 27 42 27 C42 30.96 42 34.92 42 39 C33.09 39 24.18 39 15 39 C15 45.93 15 52.86 15 60 C10.05 60 5.1 60 0 60 C0 40.2 0 20.4 0 0 Z " fill="#EE644B" transform="translate(600,6)"/>
<path d="M0 0 C17.49 0 34.98 0 53 0 C53 3.96 53 7.92 53 12 C46.73 12 40.46 12 34 12 C34 27.84 34 43.68 34 60 C29.05 60 24.1 60 19 60 C19 44.16 19 28.32 19 12 C12.73 12 6.46 12 0 12 C0 8.04 0 4.08 0 0 Z " fill="#EE644B" transform="translate(675,6)"/>
<path d="M0 0 C4.95 0 9.9 0 15 0 C15 19.8 15 39.6 15 60 C10.05 60 5.1 60 0 60 C0 40.2 0 20.4 0 0 Z " fill="#EE654D" transform="translate(654,6)"/>
<path d="M0 0 C4.95 0 9.9 0 15 0 C15 19.8 15 39.6 15 60 C10.05 60 5.1 60 0 60 C0 40.2 0 20.4 0 0 Z " fill="#FEFEFE" transform="translate(70,6)"/>
</svg>
