<svg xmlns="http://www.w3.org/2000/svg" xmlns:xlink="http://www.w3.org/1999/xlink" zoomAndPan="magnify" preserveAspectRatio="xMidYMid meet" version="1.0" viewBox="11.04 244.16 999.13 82.39"><defs><g/></defs><g fill="#b41f1f" fill-opacity="1"><g transform="translate(1.279151, 326.548736)"><g><path d="M 62.265625 0 L 46.375 -22.953125 L 28.84375 -22.953125 L 28.84375 0 L 9.765625 0 L 9.765625 -82.390625 L 45.4375 -82.390625 C 52.726562 -82.390625 59.0625 -81.171875 64.4375 -78.734375 C 69.8125 -76.304688 73.953125 -72.851562 76.859375 -68.375 C 79.765625 -63.90625 81.21875 -58.613281 81.21875 -52.5 C 81.21875 -46.375 79.742188 -41.09375 76.796875 -36.65625 C 73.859375 -32.226562 69.679688 -28.835938 64.265625 -26.484375 L 82.75 0 Z M 61.90625 -52.5 C 61.90625 -57.125 60.414062 -60.671875 57.4375 -63.140625 C 54.457031 -65.617188 50.101562 -66.859375 44.375 -66.859375 L 28.84375 -66.859375 L 28.84375 -38.140625 L 44.375 -38.140625 C 50.101562 -38.140625 54.457031 -39.394531 57.4375 -41.90625 C 60.414062 -44.414062 61.90625 -47.945312 61.90625 -52.5 Z M 61.90625 -52.5 "/></g></g></g><g fill="#b41f1f" fill-opacity="1"><g transform="translate(87.787612, 326.548736)"><g><path d="M 9.765625 -82.390625 L 28.84375 -82.390625 L 28.84375 0 L 9.765625 0 Z M 9.765625 -82.390625 "/></g></g></g><g fill="#b41f1f" fill-opacity="1"><g transform="translate(126.392764, 326.548736)"><g><path d="M 45.4375 -82.390625 C 52.726562 -82.390625 59.0625 -81.171875 64.4375 -78.734375 C 69.8125 -76.304688 73.953125 -72.851562 76.859375 -68.375 C 79.765625 -63.90625 81.21875 -58.613281 81.21875 -52.5 C 81.21875 -46.457031 79.765625 -41.175781 76.859375 -36.65625 C 73.953125 -32.144531 69.8125 -28.691406 64.4375 -26.296875 C 59.0625 -23.910156 52.726562 -22.71875 45.4375 -22.71875 L 28.84375 -22.71875 L 28.84375 0 L 9.765625 0 L 9.765625 -82.390625 Z M 44.375 -38.25 C 50.101562 -38.25 54.457031 -39.484375 57.4375 -41.953125 C 60.414062 -44.429688 61.90625 -47.945312 61.90625 -52.5 C 61.90625 -57.125 60.414062 -60.671875 57.4375 -63.140625 C 54.457031 -65.617188 50.101562 -66.859375 44.375 -66.859375 L 28.84375 -66.859375 L 28.84375 -38.25 Z M 44.375 -38.25 "/></g></g></g><g fill="#b41f1f" fill-opacity="1"><g transform="translate(212.548125, 326.548736)"><g><path d="M 45.4375 -82.390625 C 52.726562 -82.390625 59.0625 -81.171875 64.4375 -78.734375 C 69.8125 -76.304688 73.953125 -72.851562 76.859375 -68.375 C 79.765625 -63.90625 81.21875 -58.613281 81.21875 -52.5 C 81.21875 -46.457031 79.765625 -41.175781 76.859375 -36.65625 C 73.953125 -32.144531 69.8125 -28.691406 64.4375 -26.296875 C 59.0625 -23.910156 52.726562 -22.71875 45.4375 -22.71875 L 28.84375 -22.71875 L 28.84375 0 L 9.765625 0 L 9.765625 -82.390625 Z M 44.375 -38.25 C 50.101562 -38.25 54.457031 -39.484375 57.4375 -41.953125 C 60.414062 -44.429688 61.90625 -47.945312 61.90625 -52.5 C 61.90625 -57.125 60.414062 -60.671875 57.4375 -63.140625 C 54.457031 -65.617188 50.101562 -66.859375 44.375 -66.859375 L 28.84375 -66.859375 L 28.84375 -38.25 Z M 44.375 -38.25 "/></g></g></g><g fill="#b41f1f" fill-opacity="1"><g transform="translate(298.703485, 326.548736)"><g><path d="M 73.5625 -15.296875 L 73.5625 0 L 9.765625 0 L 9.765625 -82.390625 L 72.03125 -82.390625 L 72.03125 -67.09375 L 28.71875 -67.09375 L 28.71875 -49.203125 L 66.96875 -49.203125 L 66.96875 -34.375 L 28.71875 -34.375 L 28.71875 -15.296875 Z M 73.5625 -15.296875 "/></g></g></g><g fill="#b41f1f" fill-opacity="1"><g transform="translate(377.679237, 326.548736)"><g><path d="M 9.765625 -82.390625 L 47.203125 -82.390625 C 56.140625 -82.390625 64.039062 -80.679688 70.90625 -77.265625 C 77.78125 -73.859375 83.117188 -69.054688 86.921875 -62.859375 C 90.722656 -56.660156 92.625 -49.441406 92.625 -41.203125 C 92.625 -32.960938 90.722656 -25.738281 86.921875 -19.53125 C 83.117188 -13.332031 77.78125 -8.523438 70.90625 -5.109375 C 64.039062 -1.703125 56.140625 0 47.203125 0 L 9.765625 0 Z M 46.25 -15.65625 C 54.488281 -15.65625 61.0625 -17.945312 65.96875 -22.53125 C 70.875 -27.125 73.328125 -33.347656 73.328125 -41.203125 C 73.328125 -49.046875 70.875 -55.257812 65.96875 -59.84375 C 61.0625 -64.4375 54.488281 -66.734375 46.25 -66.734375 L 28.84375 -66.734375 L 28.84375 -15.65625 Z M 46.25 -15.65625 "/></g></g></g><g fill="#ffffff" fill-opacity="1"><g transform="translate(474.928793, 326.548736)"><g/></g></g><g fill="#efefef" fill-opacity="1"><g transform="translate(508.257394, 326.548736)"><g><path d="M 64.03125 -17.65625 L 25.78125 -17.65625 L 18.484375 0 L -1.0625 0 L 35.671875 -82.390625 L 54.5 -82.390625 L 91.34375 0 L 71.328125 0 Z M 58.03125 -32.140625 L 44.96875 -63.671875 L 31.890625 -32.140625 Z M 58.03125 -32.140625 "/></g></g></g><g fill="#efefef" fill-opacity="1"><g transform="translate(598.414481, 326.548736)"><g><path d="M 85.328125 -82.390625 L 85.328125 0 L 69.6875 0 L 28.609375 -50.03125 L 28.609375 0 L 9.765625 0 L 9.765625 -82.390625 L 25.546875 -82.390625 L 66.5 -32.375 L 66.5 -82.390625 Z M 85.328125 -82.390625 "/></g></g></g><g fill="#efefef" fill-opacity="1"><g transform="translate(693.514946, 326.548736)"><g><path d="M 9.765625 -82.390625 L 47.203125 -82.390625 C 56.140625 -82.390625 64.039062 -80.679688 70.90625 -77.265625 C 77.78125 -73.859375 83.117188 -69.054688 86.921875 -62.859375 C 90.722656 -56.660156 92.625 -49.441406 92.625 -41.203125 C 92.625 -32.960938 90.722656 -25.738281 86.921875 -19.53125 C 83.117188 -13.332031 77.78125 -8.523438 70.90625 -5.109375 C 64.039062 -1.703125 56.140625 0 47.203125 0 L 9.765625 0 Z M 46.25 -15.65625 C 54.488281 -15.65625 61.0625 -17.945312 65.96875 -22.53125 C 70.875 -27.125 73.328125 -33.347656 73.328125 -41.203125 C 73.328125 -49.046875 70.875 -55.257812 65.96875 -59.84375 C 61.0625 -64.4375 54.488281 -66.734375 46.25 -66.734375 L 28.84375 -66.734375 L 28.84375 -15.65625 Z M 46.25 -15.65625 "/></g></g></g><g fill="#ed563b" fill-opacity="1"><g transform="translate(790.769596, 326.548736)"><g/></g></g><g fill="#f44526" fill-opacity="1"><g transform="translate(824.098169, 326.548736)"><g><path d="M 28.84375 -67.09375 L 28.84375 -45.3125 L 66.96875 -45.3125 L 66.96875 -30.015625 L 28.84375 -30.015625 L 28.84375 0 L 9.765625 0 L 9.765625 -82.390625 L 72.03125 -82.390625 L 72.03125 -67.09375 Z M 28.84375 -67.09375 "/></g></g></g><g fill="#f44526" fill-opacity="1"><g transform="translate(899.307567, 326.548736)"><g><path d="M 9.765625 -82.390625 L 28.84375 -82.390625 L 28.84375 0 L 9.765625 0 Z M 9.765625 -82.390625 "/></g></g></g><g fill="#f44526" fill-opacity="1"><g transform="translate(937.912719, 326.548736)"><g><path d="M 26.84375 -66.859375 L 0.46875 -66.859375 L 0.46875 -82.390625 L 72.265625 -82.390625 L 72.265625 -66.859375 L 45.90625 -66.859375 L 45.90625 0 L 26.84375 0 Z M 26.84375 -66.859375 "/></g></g></g><g fill="#f16a51" fill-opacity="1"><g transform="translate(1010.684718, 326.548736)"><g/></g></g></svg>