<svg xmlns="http://www.w3.org/2000/svg" xmlns:xlink="http://www.w3.org/1999/xlink" width="500" zoomAndPan="magnify" viewBox="0 0 375 374.999991" height="500" preserveAspectRatio="xMidYMid meet" version="1.0"><defs><clipPath id="326494823f"><path d="M 187.5 0 C 83.945312 0 0 83.945312 0 187.5 C 0 291.054688 83.945312 375 187.5 375 C 291.054688 375 375 291.054688 375 187.5 C 375 83.945312 291.054688 0 187.5 0 Z M 187.5 0 " clip-rule="nonzero"/></clipPath><clipPath id="b1c57bfafd"><path d="M 93 118.429688 L 281 118.429688 L 281 195 L 93 195 Z M 93 118.429688 " clip-rule="nonzero"/></clipPath><clipPath id="62477cbce0"><path d="M 90.726562 141 L 284.449219 141 L 284.449219 254.914062 L 90.726562 254.914062 Z M 90.726562 141 " clip-rule="nonzero"/></clipPath></defs><g clip-path="url(#326494823f)"><rect x="-37.5" width="450" fill="#000000" y="-37.499999" height="449.999989" fill-opacity="1"/></g><g clip-path="url(#b1c57bfafd)"><path fill="#ed563b" d="M 174.824219 189.761719 C 175.726562 190.453125 176.675781 191.066406 177.679688 191.605469 C 178.679688 192.140625 179.71875 192.589844 180.792969 192.953125 C 181.871094 193.320312 182.96875 193.59375 184.089844 193.78125 C 185.207031 193.964844 186.335938 194.058594 187.472656 194.058594 C 188.609375 194.058594 189.734375 193.964844 190.855469 193.78125 C 191.976562 193.59375 193.074219 193.320312 194.148438 192.953125 C 195.226562 192.589844 196.265625 192.140625 197.265625 191.605469 C 198.265625 191.066406 199.21875 190.453125 200.117188 189.761719 L 280.375 127.226562 C 279.421875 125.871094 278.324219 124.644531 277.074219 123.550781 C 275.828125 122.457031 274.46875 121.527344 272.996094 120.761719 C 271.523438 119.996094 269.980469 119.414062 268.367188 119.019531 C 266.757812 118.625 265.121094 118.429688 263.460938 118.429688 L 111.511719 118.429688 C 109.753906 118.433594 108.023438 118.65625 106.324219 119.101562 C 104.621094 119.546875 103.003906 120.199219 101.46875 121.058594 C 99.9375 121.917969 98.535156 122.953125 97.265625 124.167969 C 95.996094 125.386719 94.898438 126.742188 93.972656 128.238281 Z M 174.824219 189.761719 " fill-opacity="1" fill-rule="nonzero"/></g><g clip-path="url(#62477cbce0)"><path fill="#ed563b" d="M 208.578125 200.710938 C 207.078125 201.863281 205.496094 202.882812 203.828125 203.777344 C 202.160156 204.667969 200.429688 205.417969 198.636719 206.027344 C 196.847656 206.636719 195.015625 207.09375 193.152344 207.402344 C 191.285156 207.710938 189.40625 207.867188 187.511719 207.867188 C 185.621094 207.867188 183.742188 207.710938 181.875 207.402344 C 180.011719 207.09375 178.179688 206.636719 176.390625 206.027344 C 174.597656 205.417969 172.867188 204.667969 171.199219 203.777344 C 169.53125 202.882812 167.949219 201.863281 166.449219 200.710938 L 90.789062 143.175781 L 90.789062 235.84375 C 90.789062 236.523438 90.824219 237.203125 90.890625 237.875 C 90.957031 238.550781 91.054688 239.222656 91.1875 239.886719 C 91.320312 240.554688 91.484375 241.210938 91.683594 241.859375 C 91.878906 242.511719 92.109375 243.148438 92.367188 243.773438 C 92.625 244.402344 92.917969 245.015625 93.238281 245.613281 C 93.554688 246.210938 93.90625 246.792969 94.28125 247.355469 C 94.660156 247.921875 95.0625 248.464844 95.492188 248.992188 C 95.921875 249.515625 96.378906 250.015625 96.859375 250.496094 C 97.339844 250.976562 97.839844 251.433594 98.367188 251.863281 C 98.890625 252.292969 99.433594 252.695312 100 253.074219 C 100.5625 253.453125 101.144531 253.800781 101.742188 254.121094 C 102.339844 254.441406 102.953125 254.730469 103.582031 254.988281 C 104.207031 255.25 104.847656 255.476562 105.496094 255.675781 C 106.144531 255.871094 106.800781 256.035156 107.46875 256.167969 C 108.132812 256.300781 108.804688 256.398438 109.480469 256.464844 C 110.15625 256.53125 110.832031 256.566406 111.511719 256.566406 L 263.460938 256.566406 C 264.140625 256.566406 264.816406 256.53125 265.492188 256.464844 C 266.167969 256.398438 266.839844 256.300781 267.503906 256.167969 C 268.167969 256.035156 268.828125 255.871094 269.476562 255.675781 C 270.125 255.476562 270.765625 255.25 271.390625 254.988281 C 272.019531 254.730469 272.628906 254.441406 273.230469 254.121094 C 273.828125 253.800781 274.410156 253.453125 274.972656 253.074219 C 275.539062 252.695312 276.082031 252.292969 276.605469 251.863281 C 277.132812 251.433594 277.632812 250.976562 278.113281 250.496094 C 278.59375 250.015625 279.046875 249.515625 279.480469 248.992188 C 279.910156 248.464844 280.3125 247.921875 280.691406 247.355469 C 281.066406 246.792969 281.414062 246.210938 281.734375 245.613281 C 282.054688 245.015625 282.34375 244.402344 282.605469 243.773438 C 282.863281 243.148438 283.09375 242.511719 283.289062 241.859375 C 283.488281 241.210938 283.652344 240.554688 283.785156 239.886719 C 283.917969 239.222656 284.015625 238.550781 284.082031 237.875 C 284.148438 237.203125 284.183594 236.523438 284.183594 235.84375 L 284.183594 141.808594 Z M 208.578125 200.710938 " fill-opacity="1" fill-rule="nonzero"/></g></svg>