<?xml version="1.0" encoding="UTF-8"?>
<svg version="1.1" xmlns="http://www.w3.org/2000/svg" width="500" height="500">
<path d="M0 0 C0.86625 0.556875 1.7325 1.11375 2.625 1.6875 C11.38478566 10.21676499 17.02456161 21.67738652 17.3125 33.9375 C17.2074985 45.61891654 13.3802437 55.89269634 5.6875 64.625 C-4.92094005 73.99990051 -15.02198164 78.41042541 -29.26171875 78.27734375 C-42.39987243 77.30262179 -52.5472257 70.46422106 -60.96875 60.72265625 C-63.08146805 57.89080148 -64.36576675 55.26889232 -65.6875 52 C-66.10386719 50.989375 -66.52023438 49.97875 -66.94921875 48.9375 C-70.50791226 38.98903338 -70.20367709 27.69355388 -66 18 C-63.06506859 12.24820913 -59.89486608 7.28300782 -55 3 C-53.7315625 1.7625 -53.7315625 1.7625 -52.4375 0.5 C-37.37053597 -11.866651 -15.52102011 -10.15453903 0 0 Z " fill="#000000" transform="translate(276,215)"/>
<path d="M0 0 C5.52424246 3.59333065 10.66377975 7.26445662 15.56640625 11.6796875 C19.0575205 13.57374306 22.18051371 13.81670039 26 13 C28.72614223 11.54206829 30.94156888 9.6678594 33.25 7.625 C34.44026394 6.61430174 35.63290425 5.60639411 36.828125 4.6015625 C37.3427832 4.15119629 37.85744141 3.70083008 38.38769531 3.23681641 C40.16236336 1.87544931 41.97565342 0.94085485 44 0 C44.05786668 3.79160297 44.09355054 7.58309311 44.125 11.375 C44.14175781 12.45523438 44.15851563 13.53546875 44.17578125 14.6484375 C44.18544922 16.1953125 44.18544922 16.1953125 44.1953125 17.7734375 C44.21102295 19.20308838 44.21102295 19.20308838 44.22705078 20.66162109 C44 23 44 23 42 25 C39.01037897 25.20006302 36.1153765 25.27972923 33.125 25.265625 C31.80459717 25.26849518 31.80459717 25.26849518 30.45751953 25.27142334 C28.59472366 25.27278552 26.73191831 25.26908682 24.86914062 25.26074219 C22.01150264 25.25004307 19.15449334 25.26063632 16.296875 25.2734375 C14.48958194 25.27211591 12.68228927 25.26955353 10.875 25.265625 C10.01664551 25.26967346 9.15829102 25.27372192 8.27392578 25.27789307 C2.22991745 25.22991745 2.22991745 25.22991745 0 23 C-0.22705078 20.66162109 -0.22705078 20.66162109 -0.1953125 17.7734375 C-0.18886719 16.7421875 -0.18242187 15.7109375 -0.17578125 14.6484375 C-0.15902344 13.56820312 -0.14226562 12.48796875 -0.125 11.375 C-0.11597656 10.28703125 -0.10695312 9.1990625 -0.09765625 8.078125 C-0.07403409 5.38519848 -0.04109556 2.69270745 0 0 Z " fill="#EA543A" transform="translate(228,240)"/>
<path d="M0 0 C2.8846524 -0.30398975 5.55085861 -0.4199567 8.4375 -0.3984375 C9.27337646 -0.40130768 10.10925293 -0.40417786 10.97045898 -0.40713501 C12.73910194 -0.40917804 14.50776736 -0.4036315 16.27636719 -0.39111328 C18.98944439 -0.37506245 21.70103184 -0.39095331 24.4140625 -0.41015625 C26.13021163 -0.40817386 27.84635984 -0.40433027 29.5625 -0.3984375 C30.7844104 -0.40754654 30.7844104 -0.40754654 32.03100586 -0.4168396 C34.31640625 -0.38818359 34.31640625 -0.38818359 38 0 C38.66 0.99 39.32 1.98 40 3 C36.97988899 5.38290962 33.93092222 7.72575009 30.875 10.0625 C30.0190625 10.73861328 29.163125 11.41472656 28.28125 12.11132812 C21.97339494 16.89074138 21.97339494 16.89074138 17.9375 17.34375 C13.50891674 15.31790872 9.90635392 12.47860582 6.125 9.4375 C5.34125 8.82197266 4.5575 8.20644531 3.75 7.57226562 C1.82507297 6.05814619 -0.09094633 4.53404963 -2 3 C-1.34 2.01 -0.68 1.02 0 0 Z " fill="#E05137" transform="translate(231,234)"/>
<path d="M0 0 C0.66 0.33 1.32 0.66 2 1 C-1.625 6.875 -1.625 6.875 -5 8 C-3.62845496 5.04590299 -2.01136276 2.55991624 0 0 Z " fill="#0F0503" transform="translate(264,241)"/>
</svg>
