<svg xmlns="http://www.w3.org/2000/svg" viewBox="0 0 50 50" width="50px" height="50px">
  <path d="M 5 8 A 2.0002 2.0002 0 1 0 5 12 L 45 12 A 2.0002 2.0002 0 1 0 45 8 L 5 8 z M 5 23 A 2.0002 2.0002 0 1 0 5 27 L 45 27 A 2.0002 2.0002 0 1 0 45 23 L 5 23 z M 5 38 A 2.0002 2.0002 0 1 0 5 42 L 45 42 A 2.0002 2.0002 0 1 0 45 38 L 5 38 z" fill="#000000" />
</svg>00) scale(0.100000,-0.100000)"
fill="#000000" stroke="none">
<path d="M12 548 c-16 -16 -15 -43 2 -57 9 -8 100 -11 311 -9 271 3 299 5 309
21 8 12 8 22 0 35 -10 15 -38 17 -310 20 -225 2 -303 -1 -312 -10z"/>
<path d="M12 348 c-16 -16 -15 -43 2 -57 9 -8 100 -11 311 -9 271 3 299 5 309
21 8 12 8 22 0 35 -10 15 -38 17 -310 20 -225 2 -303 -1 -312 -10z"/>
<path d="M12 148 c-16 -16 -15 -43 2 -57 9 -8 100 -11 311 -9 271 3 299 5 309
21 8 12 8 22 0 35 -10 15 -38 17 -310 20 -225 2 -303 -1 -312 -10z"/>
</g>
</svg>
