<?xml version="1.0" encoding="UTF-8"?>
<svg version="1.1" xmlns="http://www.w3.org/2000/svg" width="500" height="500">
<path d="M0 0 C0.86625 0.556875 1.7325 1.11375 2.625 1.6875 C11.38478566 10.21676499 17.02456161 21.67738652 17.3125 33.9375 C17.2074985 45.61891654 13.3802437 55.89269634 5.6875 64.625 C-4.92094005 73.99990051 -15.02198164 78.41042541 -29.26171875 78.27734375 C-42.39987243 77.30262179 -52.5472257 70.46422106 -60.96875 60.72265625 C-63.08146805 57.89080148 -64.36576675 55.26889232 -65.6875 52 C-66.10386719 50.989375 -66.52023438 49.97875 -66.94921875 48.9375 C-70.50791226 38.98903338 -70.20367709 27.69355388 -66 18 C-63.06506859 12.24820913 -59.89486608 7.28300782 -55 3 C-53.7315625 1.7625 -53.7315625 1.7625 -52.4375 0.5 C-37.37053597 -11.866651 -15.52102011 -10.15453903 0 0 Z " fill="#000000" transform="translate(276,215)"/>
<path d="M0 0 C0.77214844 -0.01611328 1.54429687 -0.03222656 2.33984375 -0.04882812 C7.93513329 -0.05367673 7.93513329 -0.05367673 10.21923828 1.42700195 C12.1163317 4.2198446 11.88883131 6.49347627 11.8984375 9.84375 C11.90423828 11.77154297 11.90423828 11.77154297 11.91015625 13.73828125 C11.90387207 14.40682129 11.89758789 15.07536133 11.89111328 15.76416016 C11.87505354 17.8056933 11.89096671 19.84524708 11.91015625 21.88671875 C11.90628906 23.17191406 11.90242188 24.45710938 11.8984375 25.78125 C11.89505371 26.96138672 11.89166992 28.14152344 11.88818359 29.35742188 C11.5 32.3125 11.5 32.3125 10.23510742 34.19799805 C8.10821496 35.56415312 6.85754622 35.68612376 4.33984375 35.67578125 C3.54642578 35.67513672 2.75300781 35.67449219 1.93554688 35.67382812 C1.11119141 35.65771484 0.28683594 35.64160156 -0.5625 35.625 C-1.39072266 35.62822266 -2.21894531 35.63144531 -3.07226562 35.63476562 C-9.23287408 35.57962592 -9.23287408 35.57962592 -11.5 33.3125 C-11.8990639 28.89406451 -11.82903357 24.46130161 -11.81567383 20.02685547 C-11.81251188 17.82078766 -11.83597576 15.61605831 -11.86132812 13.41015625 C-11.86360088 12.01302253 -11.86430472 10.61588519 -11.86328125 9.21875 C-11.86626221 7.94322266 -11.86924316 6.66769531 -11.87231445 5.35351562 C-11.74945068 4.34998047 -11.62658691 3.34644531 -11.5 2.3125 C-7.65681569 -0.24962287 -4.45306045 -0.01858539 0 0 Z " fill="#D24C34" transform="translate(250.5,231.6875)"/>
<path d="M0 0 C5.61 0 11.22 0 17 0 C17 7.26 17 14.52 17 22 C11.39 22 5.78 22 0 22 C0 14.74 0 7.48 0 0 Z " fill="#010000" transform="translate(242,237)"/>
</svg>
