<svg xmlns="http://www.w3.org/2000/svg" xmlns:xlink="http://www.w3.org/1999/xlink" width="500" zoomAndPan="magnify" viewBox="0 0 375 374.999991" height="500" preserveAspectRatio="xMidYMid meet" version="1.0"><defs><clipPath id="2c91bee221"><path d="M 187.5 0 C 83.945312 0 0 83.945312 0 187.5 C 0 291.054688 83.945312 375 187.5 375 C 291.054688 375 375 291.054688 375 187.5 C 375 83.945312 291.054688 0 187.5 0 Z M 187.5 0 " clip-rule="nonzero"/></clipPath><clipPath id="48e3aecdf1"><path d="M 137.925781 109.597656 L 238 109.597656 L 238 263.691406 L 137.925781 263.691406 Z M 137.925781 109.597656 " clip-rule="nonzero"/></clipPath></defs><g clip-path="url(#2c91bee221)"><rect x="-37.5" width="450" fill="#000000" y="-37.499999" height="449.999989" fill-opacity="1"/></g><g clip-path="url(#48e3aecdf1)"><path fill="#ed563b" d="M 215.808594 109.597656 L 159.171875 109.597656 C 147.457031 109.597656 137.933594 119.117188 137.933594 130.835938 L 137.933594 244.105469 C 137.933594 255.824219 147.457031 265.34375 159.171875 265.34375 L 215.808594 265.34375 C 227.523438 265.34375 237.046875 255.824219 237.046875 244.105469 L 237.046875 130.835938 C 237.046875 119.117188 227.523438 109.597656 215.808594 109.597656 Z M 201.648438 251.183594 L 173.332031 251.183594 L 173.332031 244.105469 L 201.648438 244.105469 Z M 224.65625 229.945312 L 150.324219 229.945312 L 150.324219 130.835938 L 224.65625 130.835938 Z M 224.65625 229.945312 " fill-opacity="1" fill-rule="nonzero"/></g></svg>